<svg xmlns="http://www.w3.org/2000/svg" width="31.597" height="30.438" viewBox="0 0 31.597 30.438"><defs><style>.a{fill:#1b202e;}</style></defs><path class="a" d="M0,180.572H31.6V159.4H0Zm23.426-18.088H26.7v3.269H23.426Zm0,5.557H26.7v3.269H23.426Zm0,5.557H26.7v3.269H23.426Zm-6.175-11.115H20.52v3.269H17.252Zm0,5.557H20.52v3.269H17.252Zm0,5.557H20.52v3.269H17.252Zm-6.175-11.115h3.269v3.269H11.077Zm0,5.557h3.269v3.269H11.077Zm0,5.557h3.269v3.269H11.077ZM4.9,162.484H8.171v3.269H4.9Zm0,5.557H8.171v3.269H4.9ZM8.171,173.6v3.269H4.9V173.6Z" transform="translate(0 -150.134)"/><path class="a" d="M31.6,39.391H26.04v3.7H24.188v-3.7H7.41v3.7H5.557v-3.7H0v5.557H31.6Z" transform="translate(0 -37.538)"/><rect class="a" width="1.852" height="1.852" transform="translate(5.557 0)"/><rect class="a" width="1.852" height="1.852" transform="translate(24.188 0)"/></svg>