<svg xmlns="http://www.w3.org/2000/svg" width="32.587" height="32.588" viewBox="0 0 32.587 32.588"><defs><style>.a{fill:#1b202e;stroke:#1b202e;stroke-width:1.5px;}</style></defs><g transform="translate(0.75 0.75)"><path class="a" d="M15.544,31.088A15.544,15.544,0,1,1,31.087,15.544,15.562,15.562,0,0,1,15.544,31.088Zm0-29.145a13.6,13.6,0,1,0,13.6,13.6,13.616,13.616,0,0,0-13.6-13.6Z"/><path class="a" d="M118.595,126.367a7.772,7.772,0,1,1,5.553-13.209l-1.389,1.359a5.829,5.829,0,1,0,0,8.157l1.387,1.361a7.71,7.71,0,0,1-5.551,2.333Z" transform="translate(-103.051 -103.051)"/></g></svg>