<svg xmlns="http://www.w3.org/2000/svg" width="44.103" height="30.317" viewBox="0 0 44.103 30.317"><defs><style>.a{fill:#1b202e;}</style></defs><g transform="translate(29.263 2.718)"><path class="a" d="M287.843,93.773a3.428,3.428,0,0,0-3.031-1.812H280V98.4a1.339,1.339,0,0,0,1.347,1.3h9.666Z" transform="translate(-280 -91.961)"/></g><g transform="translate(5.17 22.086)"><ellipse class="a" cx="4.116" cy="4.116" rx="4.116" ry="4.116"/></g><g transform="translate(28.438 22.086)"><path class="a" d="M276.227,277.281a4.116,4.116,0,1,0,4.116,4.116h0A4.121,4.121,0,0,0,276.227,277.281Z" transform="translate(-272.111 -277.281)"/></g><g transform="translate(0 0)"><path class="a" d="M43.361,80.789l-2.128-2.712H30.609a3.013,3.013,0,0,1-3.019-2.969V67.191a1.211,1.211,0,0,0-1.183-1.238H1.333A1.278,1.278,0,0,0,0,67.191V90.073A1.31,1.31,0,0,0,1.333,91.35H3.552a5.787,5.787,0,0,1,11.468,0h11.8a5.787,5.787,0,0,1,11.468,0h4.483A1.31,1.31,0,0,0,44.1,90.073V82.9A3.474,3.474,0,0,0,43.361,80.789Z" transform="translate(0 -65.953)"/></g></svg>