<svg xmlns="http://www.w3.org/2000/svg" width="32.261" height="24.195" viewBox="0 0 32.261 24.195"><defs><style>.a{fill:#fff;}</style></defs><g transform="translate(0 -64)"><g transform="translate(0 64)"><g transform="translate(0 0)"><path class="a" d="M7.151,65.963c4.428,3.75,12.2,10.347,14.48,12.4a1.349,1.349,0,0,0,1.951,0c2.285-2.059,10.055-8.656,14.482-12.406a.672.672,0,0,0,.095-.927A2.669,2.669,0,0,0,36.05,64H9.166a2.669,2.669,0,0,0-2.109,1.036A.672.672,0,0,0,7.151,65.963Z" transform="translate(-6.478 -64)"/><path class="a" d="M348.9,126.474a.669.669,0,0,0-.717.1c-2.9,2.458-6.72,5.706-9.6,8.184a.672.672,0,0,0,.018,1.034c2.677,2.144,6.712,5.094,9.625,7.19a.672.672,0,0,0,1.065-.545v-15.35A.672.672,0,0,0,348.9,126.474Z" transform="translate(-317.025 -122.479)"/><path class="a" d="M1.065,142.988c2.914-2.1,6.949-5.046,9.626-7.19a.672.672,0,0,0,.018-1.034c-2.881-2.478-6.7-5.726-9.6-8.184A.672.672,0,0,0,0,127.093v15.35a.672.672,0,0,0,1.065.545Z" transform="translate(0 -122.488)"/><path class="a" d="M39.517,293.044c-2.814-2.013-8-5.766-11.091-8.277a.674.674,0,0,0-.865.015c-.607.53-1.115.976-1.475,1.3a2.722,2.722,0,0,1-3.752,0c-.359-.324-.867-.771-1.474-1.3a.669.669,0,0,0-.864-.015c-3.084,2.5-8.273,6.26-11.091,8.277a.672.672,0,0,0-.1,1,2.693,2.693,0,0,0,1.965.862H37.652a2.7,2.7,0,0,0,1.966-.862.672.672,0,0,0-.1-1Z" transform="translate(-8.08 -270.715)"/></g></g></g></svg>