<svg xmlns="http://www.w3.org/2000/svg" xmlns:xlink="http://www.w3.org/1999/xlink" width="225.687" height="110.756" viewBox="0 0 225.687 110.756"><defs><style>.a{fill:#3c4776;}.b{fill:#243155;}.c{fill:#ff9011;}.d{fill:#f47a2e;}.e{fill:#f6894f;}.f{fill:#ffe8b5;}.g{fill:#ec6228;}.h{fill:#fff;}.i{fill:#e0ddd4;}.j{fill:#cf4d27;}.k{fill:#c3c6c9;}.l{fill:#e0e1e2;}.m{fill:url(#a);}.n{fill:url(#b);}.o{fill:#b6e2ea;}.p{fill:#ceebef;}.q{fill:#e0e0dd;}.r{fill:#fffefe;}.s{fill:#eebf7e;}.t{fill:#c9975f;}.u{fill:#c06e29;}.v{fill:#985524;}.w{fill:#b76428;}.x{fill:#8d4e22;}</style><linearGradient id="a" y1="0.5" x2="1" y2="0.5" gradientUnits="objectBoundingBox"><stop offset="0" stop-color="#ffe8b5" stop-opacity="0"/><stop offset="1" stop-color="#ffe8b5"/></linearGradient><linearGradient id="b" y1="0.5" x2="1" y2="0.5" xlink:href="#a"/></defs><g transform="translate(-31.8 -390.1)"><g transform="translate(31.8 390.1)"><g transform="translate(131.878 86.036)"><path class="a" d="M962.862,997.953a15.018,15.018,0,0,0-2.384-8.322V985.6h-6.747c-5.042,0-9.131,5.533-9.131,12.353s4.089,12.353,9.131,12.353h6.747v-4.031A14.984,14.984,0,0,0,962.862,997.953Z" transform="translate(-944.6 -985.6)"/><ellipse class="b" cx="9.131" cy="12.353" rx="9.131" ry="12.353" transform="translate(6.747)"/><ellipse class="a" cx="4.854" cy="6.574" rx="4.854" ry="6.574" transform="translate(11.89 5.779)"/></g><path class="b" d="M887.443,912.2H780.4v22.6H880.941l6.5-4.666Z" transform="translate(-672.245 -836.769)"/><rect class="c" width="70.114" height="87.726" transform="translate(38.127 5.635)"/><rect class="b" width="30.499" height="18.204" transform="translate(74.709 79.823)"/><g transform="translate(28.549 86.036)"><path class="a" d="M247.662,997.953a15.019,15.019,0,0,0-2.384-8.322V985.6h-6.747c-5.042,0-9.131,5.533-9.131,12.353s4.089,12.353,9.131,12.353h6.747v-4.031A14.868,14.868,0,0,0,247.662,997.953Z" transform="translate(-229.4 -985.6)"/><ellipse class="b" cx="9.131" cy="12.353" rx="9.131" ry="12.353" transform="translate(6.747)"/><ellipse class="a" cx="4.854" cy="6.574" rx="4.854" ry="6.574" transform="translate(11.89 5.779)"/></g><path class="d" d="M249.612,643.612H195l2.109-24.012h54.612Z" transform="translate(-171.421 -586.443)"/><path class="e" d="M193.012,796.91H138.4l8.177-11.11h54.612Z" transform="translate(-122.999 -728.631)"/><rect class="d" width="54.612" height="29.834" transform="translate(15.401 68.28)"/><g transform="translate(17.323 76.948)"><rect class="a" width="9.969" height="9.969" transform="translate(0)"/><rect class="f" width="7.657" height="7.657" transform="translate(1.156 1.156)"/><rect class="b" width="1.271" height="9.969" transform="translate(9.969)"/></g><g transform="translate(54.973 76.948)"><rect class="a" width="9.969" height="9.969"/><rect class="f" width="7.657" height="7.657" transform="translate(1.156 1.156)"/><rect class="b" width="1.271" height="9.969" transform="translate(9.969)"/></g><g transform="translate(30.542 77.309)"><path class="g" d="M244.789,925.778a.58.58,0,0,1,.578-.578h-1.589a.578.578,0,1,0,0,1.156h1.589A.58.58,0,0,1,244.789,925.778Z" transform="translate(-243.2 -925.2)"/><path class="b" d="M274.427,925.778a.58.58,0,0,0-.578-.578H254.778a.578.578,0,1,0,0,1.156h19.071A.58.58,0,0,0,274.427,925.778Z" transform="translate(-252.611 -925.2)"/><g transform="translate(0 2.023)"><path class="g" d="M244.789,939.778a.58.58,0,0,1,.578-.578h-1.589a.578.578,0,0,0,0,1.156h1.589A.58.58,0,0,1,244.789,939.778Z" transform="translate(-243.2 -939.2)"/><path class="b" d="M274.427,939.778a.58.58,0,0,0-.578-.578H254.778a.578.578,0,0,0,0,1.156h19.071A.58.58,0,0,0,274.427,939.778Z" transform="translate(-252.611 -939.2)"/></g><g transform="translate(0 4.045)"><path class="g" d="M244.789,953.778a.58.58,0,0,1,.578-.578h-1.589a.578.578,0,1,0,0,1.156h1.589A.58.58,0,0,1,244.789,953.778Z" transform="translate(-243.2 -953.2)"/><path class="b" d="M274.427,953.778a.58.58,0,0,0-.578-.578H254.778a.578.578,0,1,0,0,1.156h19.071A.58.58,0,0,0,274.427,953.778Z" transform="translate(-252.611 -953.2)"/></g><g transform="translate(0 6.068)"><path class="g" d="M244.789,967.778a.58.58,0,0,1,.578-.578h-1.589a.578.578,0,1,0,0,1.156h1.589A.58.58,0,0,1,244.789,967.778Z" transform="translate(-243.2 -967.2)"/><path class="b" d="M274.427,967.778a.58.58,0,0,0-.578-.578H254.778a.578.578,0,1,0,0,1.156h19.071A.58.58,0,0,0,274.427,967.778Z" transform="translate(-252.611 -967.2)"/></g><g transform="translate(0 8.091)"><path class="g" d="M244.789,981.778a.58.58,0,0,1,.578-.578h-1.589a.578.578,0,1,0,0,1.156h1.589A.58.58,0,0,1,244.789,981.778Z" transform="translate(-243.2 -981.2)"/><path class="b" d="M274.427,981.778a.58.58,0,0,0-.578-.578H254.778a.578.578,0,1,0,0,1.156h19.071A.58.58,0,0,0,274.427,981.778Z" transform="translate(-252.611 -981.2)"/></g></g><path class="h" d="M253.238,591.2H199.1a4.1,4.1,0,0,0-4.1,4.1h54.135A4.11,4.11,0,0,1,253.238,591.2Z" transform="translate(-171.421 -562.146)"/><path class="i" d="M573.8,591.2a4.1,4.1,0,0,0-4.1,4.1h27.725v-4.1Z" transform="translate(-491.986 -562.146)"/><path class="g" d="M575.109,619.6,573,643.612h27.248V619.6Z" transform="translate(-494.809 -586.443)"/><path class="j" d="M725.133,637.6H723.5a1.273,1.273,0,0,1,1.271,1.271V655.11a1.273,1.273,0,0,1-1.271,1.271h1.633a1.273,1.273,0,0,0,1.271-1.271V638.886A1.286,1.286,0,0,0,725.133,637.6Z" transform="translate(-623.566 -601.842)"/><path class="d" d="M516.4,796.91l8.177-11.11h27.248v11.11Z" transform="translate(-446.387 -728.631)"/><g transform="translate(76.775 86.036)"><path class="b" d="M581.462,997.953a15.019,15.019,0,0,0-2.384-8.322V985.6h-6.747c-5.042,0-9.131,5.533-9.131,12.353s4.089,12.353,9.131,12.353h6.747v-4.031A14.984,14.984,0,0,0,581.462,997.953Z" transform="translate(-563.2 -985.6)"/><ellipse class="a" cx="9.131" cy="12.353" rx="9.131" ry="12.353" transform="translate(6.747)"/><ellipse class="k" cx="4.854" cy="6.574" rx="4.854" ry="6.574" transform="translate(11.89 5.779)"/></g><g transform="translate(172.331 86.036)"><path class="b" d="M1242.862,997.953a15.019,15.019,0,0,0-2.384-8.322V985.6h-6.747c-5.042,0-9.131,5.533-9.131,12.353s4.089,12.353,9.131,12.353h6.747v-4.031A14.868,14.868,0,0,0,1242.862,997.953Z" transform="translate(-1224.6 -985.6)"/><ellipse class="a" cx="9.131" cy="12.353" rx="9.131" ry="12.353" transform="translate(6.747)"/><ellipse class="k" cx="4.854" cy="6.574" rx="4.854" ry="6.574" transform="translate(11.89 5.779)"/></g><path class="g" d="M537.768,878.376H542.2a2.84,2.84,0,0,1,2.644,1.791l4.9,12.3h2.08V862.7H516.4v29.748h9.405l4.9-12.295a2.84,2.84,0,0,1,2.644-1.792h4.421Z" transform="translate(-446.387 -794.42)"/><rect class="l" width="57.949" height="6.501" transform="translate(13.769 93.361)"/><rect class="k" width="5.996" height="6.501" transform="translate(71.704 93.361)"/><rect class="k" width="3.352" height="6.501" transform="translate(104.875 93.361)"/><rect class="l" width="1.965" height="6.501" transform="translate(102.911 93.361)"/><path class="m" d="M292.5,881.971l26.121-11.457v-7.657L292.5,851.4Z" transform="translate(-254.835 -784.753)"/><path class="n" d="M31.8,881.971l26.136-11.457v-7.657L31.8,851.4Z" transform="translate(-31.8 -784.753)"/><g transform="translate(26.534 35.758)"><path class="o" d="M314.5,637.6l-18.8,18.811h6.776l18.8-18.811Z" transform="translate(-284.107 -637.6)"/><path class="o" d="M218.166,637.6a1.275,1.275,0,0,0-1.271,1.17l-1.43,16.239a1.268,1.268,0,0,0,1.271,1.387H218.9l18.8-18.8Z" transform="translate(-215.459 -637.6)"/><path class="o" d="M397.889,637.6H389.6l-18.8,18.811h25.673a1.275,1.275,0,0,0,1.271-1.17l.2-2.268L399.175,639A1.3,1.3,0,0,0,397.889,637.6Z" transform="translate(-348.357 -637.6)"/><path class="p" d="M258.1,637.6l-18.8,18.811h8.148l18.8-18.811Z" transform="translate(-235.855 -637.6)"/><path class="p" d="M361.4,637.6l-18.8,18.811h4.074l18.8-18.811Z" transform="translate(-324.231 -637.6)"/><path class="o" d="M666.3,711.421h8.25a1.273,1.273,0,0,0,1.271-1.271V701.9Z" transform="translate(-601.164 -692.61)"/><path class="p" d="M651.71,673.6,638.1,687.21h4.074l9.536-9.536Z" transform="translate(-577.038 -668.399)"/><path class="p" d="M603.783,637.6l-9.637,9.637-.679,7.773a1.264,1.264,0,0,0,.217.838L611.931,637.6Z" transform="translate(-538.849 -637.6)"/><path class="o" d="M614.837,638.971a1.273,1.273,0,0,0-1.271-1.271h-.3L595,655.933a1.267,1.267,0,0,0,1.055.549h5.172l13.6-13.6v-3.915Z" transform="translate(-540.165 -637.686)"/><path class="o" d="M600.223,637.6a1.275,1.275,0,0,0-1.271,1.17l-.751,8.466,9.637-9.637Z" transform="translate(-542.903 -637.6)"/></g><path class="g" d="M702.495,807.677h-5.013a.885.885,0,0,1-.881-.881v-2.514a.885.885,0,0,1,.881-.881h5.013a.885.885,0,0,1,.881.881V806.8A.875.875,0,0,1,702.495,807.677Z" transform="translate(-600.552 -743.688)"/><path class="h" d="M703.9,810.8h-4.19a.709.709,0,0,0-.708.708v.809h5.606v-.809A.709.709,0,0,0,703.9,810.8Z" transform="translate(-602.605 -750.019)"/><path class="q" d="M780.783,390.1H663.266l-5.866,5.635H786.634Z" transform="translate(-567.016 -390.1)"/><path class="r" d="M361.8,390.1H303.751l-5.851,5.635h69.768Z" transform="translate(-259.455 -390.1)"/><rect class="s" width="70.114" height="2.413" transform="translate(38.127 5.635)"/><path class="c" d="M892.377,429.1H781v87.726h66.531l3.106-7.787a2.6,2.6,0,0,1,2.427-1.647H866.2a2.6,2.6,0,0,1,2.427,1.662l3.077,7.787h20.689V429.1Z" transform="translate(-672.758 -423.465)"/><path class="b" d="M1015.211,1055.09H1003.6a6.774,6.774,0,0,1-4.681-1.864L995.1,1049.6h28.606l-3.814,3.626A6.774,6.774,0,0,1,1015.211,1055.09Z" transform="translate(-855.926 -954.318)"/><rect class="q" width="70.071" height="5.447" transform="translate(108.242 87.914)"/><rect class="q" width="20.877" height="5.447" transform="translate(201.328 87.914)"/><rect class="r" width="2.398" height="5.447" transform="translate(198.93 87.914)"/><g transform="translate(113.573 12.526)"><path class="t" d="M910.885,543.317H825.991a8.1,8.1,0,0,1-8.091-8.091V484.891a8.1,8.1,0,0,1,8.091-8.091h84.894a8.1,8.1,0,0,1,8.091,8.091v50.35A8.093,8.093,0,0,1,910.885,543.317Zm-84.894-64.639a6.221,6.221,0,0,0-6.213,6.212v50.35a6.221,6.221,0,0,0,6.213,6.212h84.894a6.221,6.221,0,0,0,6.212-6.212v-50.35a6.221,6.221,0,0,0-6.212-6.212Z" transform="translate(-817.9 -476.8)"/></g><rect class="t" width="111.406" height="2.413" transform="translate(108.213 5.635)"/><rect class="h" width="54.612" height="5.1" transform="translate(15.401 68.28)"/><rect class="i" width="35.527" height="5.1" transform="translate(69.97 68.28)"/><circle class="b" cx="1.459" cy="1.459" r="1.459" transform="translate(37.232 53.283)"/><g transform="translate(38.127 53.283)"><path class="b" d="M338.394,758.9H309.022a.715.715,0,0,0-.722.722h0a.715.715,0,0,0,.722.722H338.38a.715.715,0,0,0,.722-.722h0A.712.712,0,0,0,338.394,758.9Z" transform="translate(-306.48 -758.9)"/><path class="a" d="M325.78,758.9H296.422a.715.715,0,0,0-.722.722h0a.715.715,0,0,0,.722.722H325.78a.715.715,0,0,0,.722-.722h0A.724.724,0,0,0,325.78,758.9Z" transform="translate(-295.7 -758.9)"/></g></g><g transform="translate(220.847 477.017)"><rect class="u" width="23.261" height="23.839"/><rect class="v" width="13.393" height="23.839" transform="translate(23.246)"/></g><g transform="translate(201.386 485.382)"><rect class="u" width="15.083" height="15.459"/><rect class="v" width="8.683" height="15.459" transform="translate(15.083)"/></g><g transform="translate(223.722 457.657)"><rect class="w" width="18.898" height="19.36" transform="translate(0)"/><rect class="x" width="10.879" height="19.36" transform="translate(18.883)"/></g></g></svg>