<svg xmlns="http://www.w3.org/2000/svg" width="16.141" height="22.956" viewBox="0 0 16.141 22.956"><defs><style>.a{fill:#fff;}</style></defs><g transform="translate(0)"><g transform="translate(0)"><path class="a" d="M84.07,0A8.072,8.072,0,0,0,77.2,12.314l6.406,10.324a.673.673,0,0,0,.571.318h.005a.672.672,0,0,0,.572-.327L91,12.205A8.072,8.072,0,0,0,84.07,0Zm5.778,11.515-5.676,9.477-5.824-9.386a6.73,6.73,0,1,1,11.5-.091Z" transform="translate(-76)"/></g></g><g transform="translate(4.035 4.035)"><g transform="translate(0)"><path class="a" d="M170.035,90a4.035,4.035,0,1,0,4.035,4.035A4.04,4.04,0,0,0,170.035,90Zm0,6.734a2.7,2.7,0,1,1,2.695-2.7A2.7,2.7,0,0,1,170.035,96.734Z" transform="translate(-166 -90)"/></g></g></svg>