<svg xmlns="http://www.w3.org/2000/svg" width="29.258" height="31.713" viewBox="0 0 29.258 31.713"><defs><style>.a{stroke:#000;}</style></defs><g transform="translate(0.5 0.5)"><path class="a" d="M25.584,20.928h0c-.883,0-1.382-.459-1.667-1.532a19.738,19.738,0,0,1-.312-4.373A28.3,28.3,0,0,0,23.069,8.6a.456.456,0,0,0-.886.217,27.612,27.612,0,0,1,.508,6.211,20.217,20.217,0,0,0,.342,4.6,3.665,3.665,0,0,0,.6,1.3H4.625a3.665,3.665,0,0,0,.6-1.3,20.2,20.2,0,0,0,.342-4.6c.016-2.663.035-5.681,1.124-7.991,1.226-2.6,3.659-3.864,7.437-3.864a9.72,9.72,0,0,1,5.046,1.159,6.122,6.122,0,0,1,2.479,2.9.456.456,0,0,0,.835-.367,7.1,7.1,0,0,0-2.842-3.312,8.657,8.657,0,0,0-2.809-1.044,2.717,2.717,0,0,0-5.417,0,8.739,8.739,0,0,0-2.7.977A7.034,7.034,0,0,0,5.866,6.649c-1.175,2.492-1.195,5.617-1.211,8.375A19.724,19.724,0,0,1,4.343,19.4c-.285,1.073-.784,1.531-1.667,1.532h0a2.674,2.674,0,0,0,0,5.349H5.561a.456.456,0,1,0,0-.912H2.674a1.762,1.762,0,0,1,0-3.524h22.91a1.762,1.762,0,0,1,0,3.524H7.386a.456.456,0,0,0,0,.912H9.258a4.892,4.892,0,0,0,9.741,0h6.584a2.674,2.674,0,0,0,0-5.349ZM14.129.912a1.808,1.808,0,0,1,1.77,1.45,15.646,15.646,0,0,0-3.539,0A1.808,1.808,0,0,1,14.129.912Zm0,28.889a3.986,3.986,0,0,1-3.953-3.524h7.907A3.986,3.986,0,0,1,14.129,29.8Zm0,0"/></g></svg>