<svg xmlns="http://www.w3.org/2000/svg" width="24.041" height="27.475" viewBox="0 0 24.041 27.475"><defs><style>.a{fill:#fff;}</style></defs><g transform="translate(0 0)"><g transform="translate(0)"><ellipse class="a" cx="1.073" cy="1.073" rx="1.073" ry="1.073" transform="translate(17.065 17.494)"/><path class="a" d="M54.967,19.426a1.073,1.073,0,0,0,1.073-1.073V14.381a4.3,4.3,0,0,0-4.293-4.293h-1.29V6.3a6.441,6.441,0,0,0-12.879,0v3.785H36.293A4.3,4.3,0,0,0,32,14.381v8.8a4.3,4.3,0,0,0,4.293,4.293H51.748a4.3,4.3,0,0,0,4.293-4.293,1.073,1.073,0,0,0-2.146,0,2.149,2.149,0,0,1-2.146,2.146H36.293a2.149,2.149,0,0,1-2.146-2.146v-8.8a2.149,2.149,0,0,1,2.146-2.146H51.748a2.149,2.149,0,0,1,2.146,2.146v3.971A1.073,1.073,0,0,0,54.967,19.426Zm-6.656-9.337H39.725V6.3a4.3,4.3,0,0,1,8.586,0Z" transform="translate(-32 0)"/><ellipse class="a" cx="1.073" cy="1.073" rx="1.073" ry="1.073" transform="translate(8.962 17.494)"/><ellipse class="a" cx="1.073" cy="1.073" rx="1.073" ry="1.073" transform="translate(4.937 17.494)"/><ellipse class="a" cx="1.073" cy="1.073" rx="1.073" ry="1.073" transform="translate(12.986 17.494)"/></g></g></svg>