<svg xmlns="http://www.w3.org/2000/svg" width="22.955" height="22.956" viewBox="0 0 22.955 22.956"><defs><style>.a{fill:#fff;}</style></defs><g transform="translate(0 0)"><path class="a" d="M22.375,16.932l-2.854-2.854a2.02,2.02,0,0,0-2.854,0l-1.3,1.3a1.531,1.531,0,0,1-2.162,0L7.587,9.748a1.528,1.528,0,0,1,0-2.162l1.3-1.3a2.017,2.017,0,0,0,0-2.854L6.03.59a2.02,2.02,0,0,0-2.852,0L2.139,1.619a7.285,7.285,0,0,0,0,10.291l8.909,8.913a7.272,7.272,0,0,0,10.291,0l1.038-1.038A2.02,2.02,0,0,0,22.375,16.932ZM4.128,1.542a.674.674,0,0,1,.952,0L7.933,4.386a.672.672,0,0,1,0,.951l-.476.476-3.8-3.8ZM12,19.872,3.09,10.959a5.914,5.914,0,0,1-.371-7.981L6.51,6.769a2.871,2.871,0,0,0,.125,3.93l5.622,5.627h0a2.871,2.871,0,0,0,3.93.125l3.792,3.792A5.9,5.9,0,0,1,12,19.872Zm9.426-1.038-.476.476-3.8-3.805.476-.476a.673.673,0,0,1,.951,0l2.854,2.854A.673.673,0,0,1,21.424,18.834Z" transform="translate(-0.011 0)"/></g></svg>