<svg xmlns="http://www.w3.org/2000/svg" width="22.956" height="16.452" viewBox="0 0 22.956 16.452"><defs><style>.a{fill:#fff;}</style></defs><g transform="translate(3.061 11.861)"><path class="a" d="M70.563,337.067a2.3,2.3,0,1,0,2.3,2.3A2.3,2.3,0,0,0,70.563,337.067Zm0,3.826a1.53,1.53,0,1,1,1.53-1.53A1.532,1.532,0,0,1,70.563,340.893Z" transform="translate(-68.267 -337.067)"/></g><g transform="translate(16.069 11.861)"><path class="a" d="M360.7,337.067a2.3,2.3,0,1,0,2.3,2.3A2.3,2.3,0,0,0,360.7,337.067Zm0,3.826a1.53,1.53,0,1,1,1.53-1.53A1.532,1.532,0,0,1,360.7,340.893Z" transform="translate(-358.4 -337.067)"/></g><g transform="translate(14.539 4.209)"><path class="a" d="M332.623,171.932l-3.443-5.356a.383.383,0,0,0-.322-.176H324.65a.382.382,0,0,0-.383.383v9.565a.382.382,0,0,0,.383.383h1.53v-.765h-1.148v-8.8h3.617l3.27,5.086v3.714h-1.913v.765h2.3a.382.382,0,0,0,.383-.383v-4.209A.382.382,0,0,0,332.623,171.932Z" transform="translate(-324.267 -166.4)"/></g><g transform="translate(16.069 5.739)"><path class="a" d="M359.166,203.976V201.3h3.061v-.765h-3.443a.382.382,0,0,0-.383.383v3.443a.382.382,0,0,0,.383.383h5.739v-.765h-5.356Z" transform="translate(-358.401 -200.533)"/></g><g transform="translate(0 1.53)"><path class="a" d="M14.921,106.667H.383A.383.383,0,0,0,0,107.05v12.243a.382.382,0,0,0,.383.383H3.443v-.765H.765V107.432H14.539V118.91H7.269v.765h7.652a.382.382,0,0,0,.383-.383V107.05A.382.382,0,0,0,14.921,106.667Z" transform="translate(0 -106.667)"/></g><g transform="translate(0.383 12.243)"><rect class="a" width="2.296" height="0.765"/></g><g transform="translate(8.035 12.243)"><rect class="a" width="6.504" height="0.765"/></g><g transform="translate(21.043 12.243)"><rect class="a" width="1.53" height="0.765"/></g><g transform="translate(1.53 3.061)"><rect class="a" width="13.391" height="0.765"/></g><g transform="translate(4.974 13.774)"><rect class="a" width="0.765" height="0.765"/></g><g transform="translate(17.982 13.774)"><rect class="a" width="0.765" height="0.765"/></g><g transform="translate(1.53 0)"><rect class="a" width="5.356" height="0.765"/></g><g transform="translate(0 0)"><rect class="a" width="0.765" height="0.765"/></g></svg>