<svg xmlns="http://www.w3.org/2000/svg" width="26.375" height="31.613" viewBox="0 0 26.375 31.613"><defs><style>.a{fill:#1b202e;}</style></defs><path class="a" d="M94.646,15.228A7.367,7.367,0,0,0,100.03,13a7.367,7.367,0,0,0,2.231-5.384A7.368,7.368,0,0,0,100.03,2.23a7.612,7.612,0,0,0-10.767,0,7.368,7.368,0,0,0-2.231,5.383A7.367,7.367,0,0,0,89.263,13,7.369,7.369,0,0,0,94.646,15.228Zm0,0" transform="translate(-81.658 0)"/><path class="a" d="M26.311,256.355a18.806,18.806,0,0,0-.256-2,15.738,15.738,0,0,0-.491-2.008,9.92,9.92,0,0,0-.826-1.873,7.068,7.068,0,0,0-1.245-1.622A5.489,5.489,0,0,0,21.7,247.73a6.181,6.181,0,0,0-2.283-.413,2.318,2.318,0,0,0-1.238.525c-.371.242-.8.522-1.289.831a7.386,7.386,0,0,1-1.668.735,6.477,6.477,0,0,1-4.08,0,7.369,7.369,0,0,1-1.667-.735c-.48-.307-.914-.586-1.29-.832a2.314,2.314,0,0,0-1.237-.525,6.173,6.173,0,0,0-2.283.414,5.484,5.484,0,0,0-1.789,1.124,7.069,7.069,0,0,0-1.245,1.622,9.939,9.939,0,0,0-.826,1.873,15.777,15.777,0,0,0-.491,2.008,18.74,18.74,0,0,0-.256,2c-.042.6-.063,1.233-.063,1.867a5.249,5.249,0,0,0,1.559,3.971,5.612,5.612,0,0,0,4.017,1.465H20.8a5.611,5.611,0,0,0,4.017-1.465,5.247,5.247,0,0,0,1.559-3.972c0-.637-.022-1.265-.064-1.867Zm0,0" transform="translate(0 -232.046)"/></svg>