<svg xmlns="http://www.w3.org/2000/svg" width="19.152" height="22.956" viewBox="0 0 19.152 22.956"><defs><style>.a{fill:#fff;}</style></defs><path class="a" d="M92.561,11.058a5.35,5.35,0,0,0,3.909-1.62,5.35,5.35,0,0,0,1.62-3.909A5.351,5.351,0,0,0,96.47,1.62a5.528,5.528,0,0,0-7.819,0,5.35,5.35,0,0,0-1.62,3.909,5.35,5.35,0,0,0,1.62,3.91A5.352,5.352,0,0,0,92.561,11.058ZM89.6,2.571a4.182,4.182,0,0,1,5.916,0,4,4,0,0,1,1.226,2.958,4,4,0,0,1-1.226,2.958,4.182,4.182,0,0,1-5.916,0,4,4,0,0,1-1.226-2.958A4,4,0,0,1,89.6,2.571Zm0,0" transform="translate(-83.13 0)"/><path class="a" d="M19.106,253.88a13.658,13.658,0,0,0-.186-1.451,11.428,11.428,0,0,0-.357-1.458,7.2,7.2,0,0,0-.6-1.36,5.127,5.127,0,0,0-.9-1.178,3.986,3.986,0,0,0-1.3-.816,4.488,4.488,0,0,0-1.658-.3,1.683,1.683,0,0,0-.9.381c-.269.176-.584.379-.936.6a5.365,5.365,0,0,1-1.211.534,4.7,4.7,0,0,1-2.963,0,5.348,5.348,0,0,1-1.21-.533c-.348-.223-.664-.426-.937-.6a1.681,1.681,0,0,0-.9-.381,4.483,4.483,0,0,0-1.658.3,3.983,3.983,0,0,0-1.3.816,5.128,5.128,0,0,0-.9,1.178,7.218,7.218,0,0,0-.6,1.36,11.456,11.456,0,0,0-.357,1.458,13.563,13.563,0,0,0-.186,1.451c-.03.438-.046.895-.046,1.356a3.812,3.812,0,0,0,1.132,2.884,4.075,4.075,0,0,0,2.917,1.064H15.1a4.075,4.075,0,0,0,2.917-1.064,3.811,3.811,0,0,0,1.132-2.884c0-.463-.016-.919-.046-1.356Zm-2.013,3.265a2.744,2.744,0,0,1-1.99.693H4.049a2.744,2.744,0,0,1-1.99-.693,2.489,2.489,0,0,1-.714-1.909c0-.43.014-.855.043-1.263a12.235,12.235,0,0,1,.168-1.306,10.1,10.1,0,0,1,.314-1.286,5.876,5.876,0,0,1,.488-1.106,3.8,3.8,0,0,1,.664-.871,2.645,2.645,0,0,1,.864-.537,3.1,3.1,0,0,1,1.059-.2c.047.025.131.073.267.161.277.18.6.386.948.611a6.664,6.664,0,0,0,1.52.679,6.047,6.047,0,0,0,3.791,0,6.671,6.671,0,0,0,1.521-.68c.361-.23.67-.43.947-.611.136-.088.22-.136.267-.161a3.1,3.1,0,0,1,1.06.2,2.648,2.648,0,0,1,.864.537,3.79,3.79,0,0,1,.664.871,5.857,5.857,0,0,1,.488,1.106,10.08,10.08,0,0,1,.314,1.286,12.338,12.338,0,0,1,.168,1.307h0c.029.406.043.831.043,1.262a2.489,2.489,0,0,1-.715,1.909Zm0,0" transform="translate(0 -236.228)"/></svg>