<svg xmlns="http://www.w3.org/2000/svg" width="28.429" height="30.266" viewBox="0 0 28.429 30.266"><defs><style>.a{fill:#fff;stroke:#fff;}</style></defs><g transform="translate(-15.532 0.506)"><g transform="translate(16.032 -0.001)"><path class="a" d="M43.218,6.456,29.933.042a.429.429,0,0,0-.373,0L16.274,6.456a.429.429,0,0,0-.242.386V22.418a.429.429,0,0,0,.242.386L29.56,29.218a.429.429,0,0,0,.373,0L43.218,22.8a.429.429,0,0,0,.242-.386V6.842A.429.429,0,0,0,43.218,6.456ZM29.746.9l12.3,5.938L38.481,8.563a.425.425,0,0,0-.073-.046L26.192,2.62ZM25.224,3.1,37.506,9.034,34.99,10.248,22.713,4.321ZM37.793,9.847v4.489l-2.35,1.134V10.981Zm4.81,12.3-12.428,6V13.525l2.965-1.431a.429.429,0,1,0-.373-.772l-3.02,1.458-1.188-.574a.429.429,0,1,0-.373.772l1.133.547V28.149l-12.428-6V7.525l9.464,4.569a.429.429,0,0,0,.373-.772l-9.28-4.48L21.7,4.786,34.58,11l.006.008v5.143a.429.429,0,0,0,.615.386l3.207-1.548a.429.429,0,0,0,.242-.386V9.433L42.6,7.525V22.149Z" transform="translate(-16.032 0)"/></g><g transform="translate(17.862 19.503)"><path class="a" d="M50.613,342.245l-1.95-.941a.429.429,0,1,0-.373.772l1.95.941a.429.429,0,0,0,.373-.772Z" transform="translate(-48.048 -341.261)"/></g><g transform="translate(17.864 17.47)"><path class="a" d="M52.452,307.539l-3.741-1.806a.429.429,0,0,0-.373.772l3.741,1.806a.429.429,0,0,0,.373-.772Z" transform="translate(-48.096 -305.69)"/></g></g></svg>